<svg xmlns="http://www.w3.org/2000/svg" viewBox="0 0 64 64"><g id="Layer_24" data-name="Layer 24"><path d="M57,10.75H7A4.26,4.26,0,0,0,2.75,15V49A4.26,4.26,0,0,0,7,53.25H57A4.26,4.26,0,0,0,61.25,49V15A4.26,4.26,0,0,0,57,10.75ZM7,13.25H57A1.76,1.76,0,0,1,58.75,15V30.83l-7.81-7.59a1.24,1.24,0,0,0-1.68,0l-13,11.11-5.82-5.83A1.25,1.25,0,0,0,29,28.24L5.25,39.92V15A1.76,1.76,0,0,1,7,13.25Zm50,37.5H7A1.76,1.76,0,0,1,5.25,49V42.71L29.32,30.87,44.15,45.71a1.28,1.28,0,0,0,.89.36,1.25,1.25,0,0,0,.88-2.13l-7.86-7.87L50,25.83l8.73,8.49V49A1.76,1.76,0,0,1,57,50.75Z" id="id_101" style="fill: rgb(255, 255, 255);"></path><path d="M15.29,25.39a5.11,5.11,0,1,0-5.11-5.1A5.11,5.11,0,0,0,15.29,25.39Zm0-7.71a2.61,2.61,0,1,1-2.61,2.61A2.61,2.61,0,0,1,15.29,17.68Z" id="id_102" style="fill: rgb(255, 255, 255);"></path></g></svg>