<svg xmlns="http://www.w3.org/2000/svg" viewBox="0 0 512 512"><title>Bird</title><g id="Bird"><path d="M382.9934,372.8065,364.1492,206.3686a108.1508,108.1508,0,0,0-216.2988,0L129.0062,372.8065a9.45,9.45,0,0,0,10.0287,10.4859c.1935-.009,19.459-1.2924,36.8172-1.2924,12.2256,0,18.3078.6327,21.2526,1.1691,14.7654,2.6451,43.5762,21.3489,53.4375,28.3356a9.4567,9.4567,0,0,0,10.9332-.0171c9.5445-6.7851,37.494-25.0227,51.9606-27.8181,3.3319-.6408,10.3806-1.4058,25.0407-1.4058,16.866,0,34.3917,1.0287,34.5582,1.0368a9.5733,9.5733,0,0,0,7.4178-2.9268A9.4431,9.4431,0,0,0,382.9934,372.8065Zm-44.5167-9.4482c-13.158,0-22.518.5715-28.6263,1.7577-16.9452,3.2787-42.4863,19.521-53.8595,27.1935-11.6542-7.8219-38.1448-24.6177-55.5472-27.747-5.4576-.9846-13.5081-1.4589-24.6-1.4589-9.5625,0-19.4859.36-26.8074.7119l17.649-155.8386a8.4706,8.4706,0,0,0,.0613-1.0548,89.253,89.253,0,0,1,178.506,0,10.2319,10.2319,0,0,0,.053,1.0548L362.963,363.8947C356.2742,363.631,347.3705,363.3583,338.4767,363.3583Z" id="id_105" style="fill: rgb(255, 255, 255);"></path><path d="M199.3016,184.7209a16.9322,16.9322,0,1,1-16.9281,16.9362A16.932,16.932,0,0,1,199.3016,184.7209Z" id="id_106" style="fill: rgb(255, 255, 255);"></path><path d="M312.698,184.7209A16.9322,16.9322,0,1,1,295.77,201.6571,16.939,16.939,0,0,1,312.698,184.7209Z" id="id_107" style="fill: rgb(255, 255, 255);"></path><path d="M256,335.2684l42.1694-109.2123h-84.348Zm0-52.4619-14.616-37.8459h29.232Z" id="id_108" style="fill: rgb(255, 255, 255);"></path></g></svg>