<svg id="Layer_1" data-name="Layer 1" xmlns="http://www.w3.org/2000/svg" viewBox="0 0 48 48"><path d="M30.807,32.131a20.77,20.77,0,0,0,4.829-5.281c1.648-.588,8.013-3.64,8.363-15.8a1.968,1.968,0,0,0-.561-1.438A2.021,2.021,0,0,0,42,9H38V6a3,3,0,0,0-3-3H13a3,3,0,0,0-3,3V9H6a2.017,2.017,0,0,0-1.439.609A1.965,1.965,0,0,0,4,11.047c.35,12.163,6.715,15.215,8.363,15.8a20.77,20.77,0,0,0,4.829,5.281A11.034,11.034,0,0,0,20,33.737V36a2,2,0,0,1-2,2H15a5.006,5.006,0,0,0-5,5,2,2,0,0,0,2,2H36a2,2,0,0,0,2-2,5.006,5.006,0,0,0-5-5H30a2,2,0,0,1-2-2V33.737A11.034,11.034,0,0,0,30.807,32.131ZM42,10.99c-.215,7.461-2.818,11.032-4.842,12.69A14.842,14.842,0,0,0,38,18.759V11ZM6,11h4v7.759a14.821,14.821,0,0,0,.842,4.921C8.817,22.021,6.216,18.452,6,11Zm6,7.759V6a1,1,0,0,1,1-1H35a1,1,0,0,1,1,1V18.759c0,4.459-2.165,8.43-6.434,11.8a8.95,8.95,0,0,1-11.132,0C14.165,27.189,12,23.218,12,18.759ZM30,40h3a3,3,0,0,1,3,3H12a3,3,0,0,1,3-3h3a4,4,0,0,0,4-4V34.314a10.513,10.513,0,0,0,4,0V36A4,4,0,0,0,30,40Z" id="id_101" style="fill: rgb(255, 255, 255);"></path><path d="M27.373,23.649a1,1,0,0,0,1.335-.97l-.1-3.579,2.183-2.837a1,1,0,0,0-.509-1.569l-3.434-1.013-2.024-2.953a1.038,1.038,0,0,0-1.65,0l-2.024,2.953-3.434,1.013a1,1,0,0,0-.509,1.569L19.391,19.1l-.1,3.579a1,1,0,0,0,1.335.97L24,22.449Zm-6.041-2.374L21.4,18.8a.99.99,0,0,0-.207-.637L19.682,16.2l2.376-.7a1,1,0,0,0,.542-.394L24,13.063l1.4,2.042a1,1,0,0,0,.542.394l2.376.7-1.51,1.963a.99.99,0,0,0-.207.637l.067,2.476-2.333-.83a1.013,1.013,0,0,0-.67,0Z" id="id_102" style="fill: rgb(255, 255, 255);"></path></svg>